<?xml version="1.0" standalone="no"?>
<!DOCTYPE svg PUBLIC "-//W3C//DTD SVG 20010904//EN"
 "http://www.w3.org/TR/2001/REC-SVG-20010904/DTD/svg10.dtd">
<svg version="1.0" xmlns="http://www.w3.org/2000/svg"
 width="512.000000pt" height="512.000000pt" viewBox="0 0 512.000000 512.000000"
 preserveAspectRatio="xMidYMid meet">

<g transform="translate(0.000000,512.000000) scale(0.100000,-0.100000)"
fill="#3b5441"  stroke="none">
<path fill="#3b5441" d="M390 4636 c-119 -26 -209 -97 -262 -204 l-33 -67 -3 -412 c-3 -403
-2 -413 18 -433 26 -26 64 -26 90 0 18 18 20 33 20 195 l0 175 1795 0 1795 0
0 -405 0 -406 25 -24 c31 -32 59 -32 91 0 l25 25 -3 632 c-3 578 -5 637 -21
678 -28 72 -84 146 -140 184 -85 58 -123 67 -313 73 -197 7 -235 -1 -254 -48
-11 -27 -10 -34 7 -57 l20 -27 194 -5 c220 -6 246 -13 311 -90 49 -56 58 -97
58 -259 l0 -141 -1792 2 -1793 3 0 150 c0 142 1 153 26 200 28 56 91 109 147
125 25 6 463 10 1307 10 1407 0 1315 -4 1315 63 0 38 -7 50 -37 66 -32 16
-2516 14 -2593 -3z"/>
<path fill="#3b5441" d="M490 4320 c-28 -28 -26 -81 3 -108 31 -29 72 -28 102 3 30 30 32 64
4 99 -26 33 -79 36 -109 6z"/>
<path fill="#3b5441" d="M800 4320 c-45 -45 -9 -130 54 -130 36 0 76 41 76 78 0 61 -86 96
-130 52z"/>
<path fill="#3b5441" d="M1110 4320 c-45 -45 -9 -130 54 -130 36 0 76 41 76 78 0 61 -86 96
-130 52z"/>
<path fill="#3b5441" d="M1196 3695 c-26 -27 -29 -56 -8 -84 19 -25 22 -26 148 -29 l128 -3
-532 -532 c-472 -472 -532 -536 -532 -563 0 -18 8 -38 20 -49 48 -43 39 -51
606 516 l534 534 0 -121 c0 -108 2 -124 21 -148 28 -35 70 -35 98 0 20 25 21
39 21 238 0 200 -1 214 -20 234 -20 21 -27 22 -245 22 -186 0 -226 -3 -239
-15z"/>
<path fill="#3b5441" d="M2533 3630 c-46 -19 -55 -69 -18 -105 l24 -25 486 0 486 0 24 25 c14
13 25 33 25 45 0 12 -11 32 -25 45 l-24 25 -478 -1 c-263 0 -488 -4 -500 -9z"/>
<path fill="#3b5441" d="M106 3351 c-15 -17 -16 -88 -14 -922 l3 -904 28 -57 c38 -77 107
-144 187 -182 l65 -31 1053 -3 1052 -2 25 24 c30 30 32 56 6 87 l-19 24 -1054
5 c-1168 6 -1077 0 -1144 72 -74 78 -69 2 -72 988 -2 800 -4 886 -19 902 -21
24 -75 23 -97 -1z"/>
<path fill="#3b5441" d="M2840 3317 c-38 -19 -48 -61 -23 -95 l20 -27 338 -3 c336 -2 339 -2
362 20 28 26 29 58 4 89 l-19 24 -329 3 c-251 2 -334 -1 -353 -11z"/>
<path fill="#3b5441" d="M1895 3225 l-25 -24 0 -794 c0 -788 0 -794 21 -821 l20 -26 180 0
c178 0 180 0 204 25 l25 24 0 796 0 796 -25 24 c-24 25 -27 25 -200 25 -173 0
-176 0 -200 -25z m285 -820 l0 -705 -85 0 -85 0 0 705 0 705 85 0 85 0 0 -705z"/>
<path fill="#3b5441" d="M3655 2930 c-409 -53 -775 -312 -954 -675 -98 -199 -137 -382 -127
-600 6 -151 31 -269 81 -395 88 -221 220 -395 403 -533 227 -170 461 -248 748
-248 333 0 628 123 864 360 238 239 360 534 360 871 0 587 -420 1094 -999
1206 -95 18 -286 25 -376 14z m417 -163 c145 -38 144 -36 54 -98 -42 -30 -133
-84 -202 -121 -69 -36 -147 -84 -175 -105 -181 -137 -200 -402 -42 -561 56
-55 142 -96 263 -122 109 -24 176 -54 202 -91 23 -31 38 -125 38 -245 0 -99
18 -174 56 -240 35 -59 136 -152 228 -209 l79 -49 -44 -39 c-153 -136 -387
-244 -572 -263 l-63 -6 -17 54 c-40 128 -150 247 -321 349 -136 81 -208 104
-321 104 -76 0 -99 -4 -145 -26 -31 -14 -73 -41 -93 -59 -21 -18 -39 -31 -41
-29 -87 109 -147 219 -190 349 -46 139 -60 242 -53 398 21 510 388 931 894
1027 121 23 341 14 465 -18z m342 -154 c88 -58 237 -206 294 -293 215 -327
248 -727 87 -1067 -47 -100 -111 -202 -131 -210 -19 -7 -145 70 -209 129 -31
28 -68 74 -82 102 -24 46 -27 66 -33 212 -6 133 -11 169 -29 210 -46 104 -114
147 -302 194 -67 16 -141 41 -164 54 -75 45 -123 145 -109 230 17 103 78 165
252 255 141 73 225 127 289 186 26 24 52 44 57 45 4 0 40 -21 80 -47z m-1111
-1628 c111 -29 264 -120 352 -210 44 -45 106 -149 94 -159 -9 -8 -160 16 -244
39 -150 42 -314 130 -416 222 l-38 35 27 22 c37 32 71 48 112 57 52 10 51 10
113 -6z"/>
<path fill="#3b5441" d="M1270 2760 c-20 -20 -20 -33 -20 -585 l0 -566 25 -24 c24 -25 27 -25
200 -25 173 0 176 0 200 25 l25 24 0 556 c0 556 -2 586 -34 607 -6 4 -93 8
-193 8 -170 0 -184 -1 -203 -20z m290 -585 l0 -475 -85 0 -85 0 0 475 0 475
85 0 85 0 0 -475z"/>
<path fill="#3b5441" d="M655 2296 l-25 -25 0 -334 0 -334 23 -21 c22 -21 32 -22 201 -22 175
0 177 0 202 25 l25 25 -3 335 c-3 305 -5 336 -21 352 -15 16 -41 18 -197 21
l-180 3 -25 -25z m285 -356 l0 -240 -85 0 -85 0 0 240 0 240 85 0 85 0 0 -240z"/>
</g>
</svg>
