<?xml version="1.0" standalone="no"?>
<!DOCTYPE svg PUBLIC "-//W3C//DTD SVG 20010904//EN"
 "http://www.w3.org/TR/2001/REC-SVG-20010904/DTD/svg10.dtd">
<svg version="1.0" xmlns="http://www.w3.org/2000/svg"
 width="100.000000pt" height="100.000000pt" viewBox="0 0 100.000000 100.000000"
 preserveAspectRatio="xMidYMid meet">

<g transform="translate(0.000000,100.000000) scale(0.100000,-0.100000)"
fill="#3b5441"  stroke="none">
<path d="M565 944 c-47 -24 -76 -55 -101 -109 -72 -151 45 -256 170 -153 44
36 86 117 86 166 0 90 -76 137 -155 96z m99 -46 c20 -28 20 -59 0 -106 -36
-88 -128 -139 -166 -92 -22 27 -23 59 -2 108 38 92 132 142 168 90z"/>
<path d="M254 881 c-45 -27 -69 -83 -69 -159 0 -59 2 -66 33 -93 38 -34 65
-36 108 -10 45 27 69 83 69 159 0 59 -2 66 -33 93 -38 34 -65 36 -108 10z m93
-51 c30 -59 -4 -165 -59 -184 -73 -26 -94 113 -28 184 35 37 68 37 87 0z"/>
<path d="M764 696 c-118 -55 -163 -186 -81 -237 42 -25 91 -24 153 5 118 55
163 186 81 237 -42 25 -91 24 -153 -5z m136 -34 c47 -38 -4 -130 -92 -166 -49
-21 -81 -20 -108 2 -61 50 48 180 151 182 15 0 37 -8 49 -18z"/>
<path d="M250 549 c-62 -12 -145 -55 -174 -90 -67 -79 -26 -199 76 -224 35 -9
74 -48 83 -83 20 -79 99 -126 175 -103 72 21 136 141 147 272 15 180 -103 268
-307 228z m190 -49 c47 -24 80 -81 80 -139 0 -97 -45 -220 -96 -260 -54 -43
-126 -12 -153 65 -18 52 -54 88 -102 104 -49 16 -89 61 -89 100 0 34 39 84 84
107 83 44 214 55 276 23z"/>
<path d="M705 387 c-54 -22 -75 -37 -90 -67 -22 -42 -19 -66 14 -102 27 -31
34 -33 93 -33 76 0 132 24 159 69 26 43 24 70 -9 107 -24 27 -37 33 -83 35
-30 2 -67 -2 -84 -9z m143 -50 c24 -25 5 -67 -43 -94 -90 -51 -197 -8 -152 61
35 53 154 73 195 33z"/>
</g>
</svg>
