<svg id="Layer_1" data-name="Layer 1" xmlns="http://www.w3.org/2000/svg" viewBox="0 0 122.88 104.28"><defs><style>.cls-1{fill-rule:evenodd;}</style></defs><title>public-health</title><path class="cls-1" fill="#3b5441" d="M61.11,9.2C65.4,4.73,68.4.87,75,.11,87.4-1.32,98.8,11.38,92.54,23.87c-1.78,3.57-5.41,7.8-9.42,12-4.41,4.56-9.28,9-12.7,12.41l-9.31,9.24-7.69-7.41c-9.25-8.91-24.35-20.14-24.85-34C28.23,6.29,35.91.05,44.75.16c7.9.11,11.22,4,16.36,9ZM90.55,93.69l.77,0a1.08,1.08,0,0,1,1.08,1.08v8.47a1.08,1.08,0,0,1-1.08,1.08H66.61a1.08,1.08,0,0,1-1.08-1.08V94.73a1.08,1.08,0,0,1,1.08-1.08c7.24,0,17-.57,23.94,0Zm-.83-2.18H66.62a1.07,1.07,0,0,1-1-1.12c.09-2,.27-3.93.47-5.93.2-1.67.37-3.13.59-4.4a17.2,17.2,0,0,1,.93-3.52v0a11.77,11.77,0,0,1,1.81-3.07,22.2,22.2,0,0,1,3.11-3.12c.83-.69,1.57-1.28,2.45-1.9l.88-.53L79.31,66a58.72,58.72,0,0,0,6.14-3.53,58.73,58.73,0,0,0,7.11-5.94C94.33,55,96.83,53,98.4,51.37a15.15,15.15,0,0,1,3.16-2.9,5.2,5.2,0,0,1,3.2-1h0a2.5,2.5,0,0,1,.75.19,2.57,2.57,0,0,1,.57.35l.09.09a2.27,2.27,0,0,1,.49.65,3.33,3.33,0,0,1,.26.67v0a4.53,4.53,0,0,1-.3,2.71A7.27,7.27,0,0,1,105,54.58L90.29,71a1.06,1.06,0,0,0,.86,1.77,1.08,1.08,0,0,0,.69-.3q7.26-8.18,14.62-16.3a10.44,10.44,0,0,0,1-1.11,9.12,9.12,0,0,0,.75-1.12c2.56-4.07,6.34-14.9,8.45-19.93l.2-.31a6.54,6.54,0,0,1,1.31-1.09l.06,0a3.84,3.84,0,0,1,1.55-.54h0a2.4,2.4,0,0,1,.76,0,2.48,2.48,0,0,1,.64.24l.11.06A2.66,2.66,0,0,1,122,33a4.23,4.23,0,0,1,.44.85A9.23,9.23,0,0,1,122.8,38a26.24,26.24,0,0,1-1.29,5.37c-1.33,4.55-2.62,9.14-3.86,13.73a37.71,37.71,0,0,1-2.43,7.26A34.86,34.86,0,0,1,110,71.72c-2.35,2.7-4.66,5.13-6.91,7.38s-4.48,4.36-6.64,6.4l-5.85,5.62a1.08,1.08,0,0,1-.83.39Zm-33.51,0H33.16a1.08,1.08,0,0,1-.83-.39l-2.8-2.73-3.09-2.93c-2.2-2.08-4.44-4.2-6.6-6.36l0,0c-2.25-2.24-4.54-4.66-6.87-7.34a35,35,0,0,1-5.28-7.37,37.74,37.74,0,0,1-2.42-7.26C4,52.52,2.74,47.89,1.37,43.37A26,26,0,0,1,.08,38a9.11,9.11,0,0,1,.34-4.14A3.85,3.85,0,0,1,.86,33a2.63,2.63,0,0,1,.68-.69l.12-.06A2.23,2.23,0,0,1,2.3,32a2.38,2.38,0,0,1,.76,0h0a3.74,3.74,0,0,1,1.55.54l.07,0A6.43,6.43,0,0,1,6,33.66l.2.32c2.1,5,5.93,15.94,8.46,19.93A7.63,7.63,0,0,0,15.42,55l0,0a9.57,9.57,0,0,0,1,1.06c5,5,9.72,11.1,14.63,16.3a1.08,1.08,0,0,0,1.45,0,1,1,0,0,0,.36-.74,1.05,1.05,0,0,0-.26-.77L17.88,54.58a7.12,7.12,0,0,1-1.68-2.37,4.38,4.38,0,0,1-.3-2.71v0a2.83,2.83,0,0,1,.26-.67,2.19,2.19,0,0,1,.49-.66,2.58,2.58,0,0,1,.66-.43,2.77,2.77,0,0,1,.74-.19h.06a5.2,5.2,0,0,1,3.2,1,14.89,14.89,0,0,1,3.15,2.9c1.69,1.77,4,3.47,5.84,5.19a60.32,60.32,0,0,0,7.11,5.94A59.77,59.77,0,0,0,43.56,66L47,67.86l.87.54c.88.62,1.63,1.22,2.45,1.9a21.79,21.79,0,0,1,3.12,3.12,11.73,11.73,0,0,1,1.8,3.07l0,0a17.87,17.87,0,0,1,.93,3.52c.21,1.27.39,2.73.58,4.4.21,2,.37,3.92.48,5.92a1.07,1.07,0,0,1-1,1.13ZM32.12,93.67c6.87.61,16.92,0,24.14,0a1.08,1.08,0,0,1,1.08,1.08v8.47a1.08,1.08,0,0,1-1.08,1.08H31.55a1.07,1.07,0,0,1-1.07-1.08V94.73a1.07,1.07,0,0,1,1.07-1.08l.57,0ZM59,17.52h4.79a1.63,1.63,0,0,1,1.63,1.62v5.21h5.21A1.63,1.63,0,0,1,72.29,26v4.78a1.63,1.63,0,0,1-1.62,1.63H65.46v5.07a1.64,1.64,0,0,1-1.63,1.63H59a1.63,1.63,0,0,1-1.62-1.63V32.39H52.21a1.64,1.64,0,0,1-1.63-1.63V26a1.63,1.63,0,0,1,1.63-1.62h5.21V19.14A1.63,1.63,0,0,1,59,17.52Z"/></svg>