<?xml version="1.0" standalone="no"?>
<!DOCTYPE svg PUBLIC "-//W3C//DTD SVG 20010904//EN"
 "http://www.w3.org/TR/2001/REC-SVG-20010904/DTD/svg10.dtd">
<svg version="1.0" xmlns="http://www.w3.org/2000/svg"
 width="32.000000pt" height="32.000000pt" viewBox="0 0 32.000000 32.000000"
 preserveAspectRatio="xMidYMid meet">

<g transform="translate(0.000000,32.000000) scale(0.100000,-0.100000)"
fill="#000000" stroke="none">
<path d="M150 165 c-68 -68 -121 -127 -117 -131 4 -4 19 3 33 17 22 21 34 24
82 21 47 -3 63 1 92 20 50 34 60 70 31 109 l-23 31 21 22 c22 23 27 36 13 36
-4 0 -63 -56 -132 -125z m50 -40 c-7 -8 -22 -15 -33 -15 -19 0 -18 2 9 31 23
24 30 27 32 14 2 -9 -2 -22 -8 -30z"/>
<path d="M79 227 c-45 -30 -58 -67 -35 -102 l18 -27 24 23 c13 12 24 32 24 44
0 27 18 45 45 45 21 0 45 17 45 32 0 18 -88 8 -121 -15z"/>
</g>
</svg>
